<?xml version="1.0" encoding="utf-8"?>
<!-- Generator: Adobe Illustrator 15.1.0, SVG Export Plug-In  -->
<!DOCTYPE svg PUBLIC "-//W3C//DTD SVG 1.0//EN" "http://www.w3.org/TR/2001/REC-SVG-20010904/DTD/svg10.dtd" [
	<!ENTITY ns_flows "http://ns.adobe.com/Flows/1.0/">
]>
<svg version="1.0"
	 xmlns="http://www.w3.org/2000/svg" xmlns:xlink="http://www.w3.org/1999/xlink" xmlns:a="http://ns.adobe.com/AdobeSVGViewerExtensions/3.0/"
	 x="0px" y="0px" width="487px" height="274px" viewBox="-12.6079 -10.6548 487 274"
	 overflow="visible" enable-background="new -12.6079 -10.6548 487 274" xml:space="preserve">
<defs>
</defs>
<path fill="none" d="M77.5923,244.6831h-3.5425v11.1328h3.5986c3.0747,0,5.793-1.9668,5.793-5.5664
	C83.4414,246.9702,81.0605,244.6831,77.5923,244.6831z"/>
<path fill="none" d="M126.4673,247.1753c0-1.4434-1.0298-2.4922-3.3726-2.4922h-2.0815v5.0029h2.1182
	C125.3804,249.686,126.4673,248.7124,126.4673,247.1753z"/>
<path fill="none" d="M151.8882,244.6831h-2.4932v5.1533h2.3809c2.3794,0,3.2612-1.1436,3.2612-2.5859
	C155.0371,245.8628,154.1372,244.6831,151.8882,244.6831z"/>
<path fill="none" d="M233.9175,244.6831h-3.543v11.1328h3.5986c3.0752,0,5.792-1.9668,5.792-5.5664
	C239.7651,246.9702,237.3843,244.6831,233.9175,244.6831z"/>
<path fill="none" d="M212.3955,247.1753c0-1.4434-1.0312-2.4922-3.3726-2.4922h-2.082v5.0029h2.1182
	C211.3081,249.686,212.3955,248.7124,212.3955,247.1753z"/>
<path fill="none" d="M316.3784,244.6831h-3.543v11.1328h3.5996c3.0742,0,5.792-1.9668,5.792-5.5664
	C322.2271,246.9702,319.8462,244.6831,316.3784,244.6831z"/>
<path fill="none" d="M291.0327,199.9976c14.457,0,15.4844-11.4492,15.4844-26.7148c0-13.7207-0.7344-25.7549-15.4844-25.7549
	c-13.7227,0-15.5566,11.0068-15.5566,26.417C275.4761,194.3413,280.0249,199.9976,291.0327,199.9976z"/>
<path fill="none" d="M298.0249,48.1548c-11.9404,0-13.5352,9.5781-13.5352,22.9878c0,17.7505,3.959,22.6689,13.5352,22.6689
	c12.5791,0,13.4727-9.9624,13.4727-23.2441C311.4976,58.6294,310.8599,48.1548,298.0249,48.1548z"/>
<path fill="none" d="M364.4917,71.6548c0-13.7285-2.6191-22.6689-17.4336-22.6689c-1.6582,0-3.127,0.063-3.959,0.1909v43.6753
	c1.2168,0.1284,2.2363,0.1909,3.3857,0.1909C363.021,93.043,364.4917,80.083,364.4917,71.6548z"/>
<polygon fill="none" points="116.8643,74.8457 131.5493,74.8457 124.0146,57.4141 "/>
<polygon fill="none" points="330.7271,251.3931 336.2192,251.3931 333.4634,245.3755 "/>
<path d="M77.5361,243.8589h-4.479v12.7812h4.6475c5.061,0,6.8042-3.4297,6.8042-6.3906
	C84.5088,247.437,82.9722,243.8589,77.5361,243.8589z M77.6484,255.8159h-3.5986v-11.1328h3.5425
	c3.4683,0,5.8491,2.2871,5.8491,5.5664C83.4414,253.8491,80.7231,255.8159,77.6484,255.8159z"/>
<polygon points="91.6787,250.6245 97.5083,250.6245 97.5083,249.8003 91.6787,249.8003 91.6787,244.6831 97.6572,244.6831 
	97.6572,243.8589 90.6846,243.8589 90.6846,256.6401 97.8071,256.6401 97.8071,255.8159 91.6787,255.8159 "/>
<polygon points="95.4824,239.8647 93.5342,242.7896 94.1523,242.7896 97.001,239.8647 "/>
<path d="M104.0967,250.2671c0-3.2412,2.3989-5.6602,5.5859-5.6602c1.5186,0,2.9609,0.3945,4.5537,1.2383v-1.0879
	c-1.5547-0.7119-3.0732-1.0684-4.4976-1.0684c-3.5044,0-6.71,2.6611-6.71,6.5781c0,3.75,2.9048,6.543,6.8042,6.543
	c1.4805,0,3.0552-0.4121,4.5356-1.2012v-1.0293c-1.7432,0.918-3.1113,1.3105-4.5552,1.3105
	C106.4771,255.8901,104.0967,253.5679,104.0967,250.2671z"/>
<path d="M125.0991,250.2671c1.6309-0.5996,2.437-1.6299,2.437-3.1113c0-1.7051-1.1055-3.2969-4.2363-3.2969H120.02v12.7812h0.9932
	v-6.1279h1.7246c1.5371,0,2.0244,0.2051,3.561,2.624l2.2305,3.5039h1.1631l-2.8867-4.4229
	C126.2061,251.3169,125.6992,250.5864,125.0991,250.2671z M123.1313,249.686h-2.1182v-5.0029h2.0815
	c2.3428,0,3.3726,1.0488,3.3726,2.4922C126.4673,248.7124,125.3804,249.686,123.1313,249.686z"/>
<polygon points="137.7441,248.9175 133.4712,243.8589 132.272,243.8589 137.2388,249.7808 137.2388,256.6401 138.2319,256.6401 
	138.2319,249.7808 143.1987,243.8589 141.999,243.8589 "/>
<path d="M151.9248,243.8589h-3.5229v12.7812h0.9932v-5.9785h2.437c3.3179,0,4.2729-1.7803,4.2729-3.4307
	C156.105,245.395,154.9238,243.8589,151.9248,243.8589z M151.7759,249.8364h-2.3809v-5.1533h2.4932
	c2.249,0,3.1489,1.1797,3.1489,2.5674C155.0371,248.6929,154.1553,249.8364,151.7759,249.8364z"/>
<polygon points="160.314,244.6831 165.1118,244.6831 165.1118,256.6401 166.1064,256.6401 166.1064,244.6831 170.9048,244.6831 
	170.9048,243.8589 160.314,243.8589 "/>
<polygon points="177.2134,250.6245 183.0425,250.6245 183.0425,249.8003 177.2134,249.8003 177.2134,244.6831 183.1919,244.6831 
	183.1919,243.8589 176.2192,243.8589 176.2192,256.6401 183.3418,256.6401 183.3418,255.8159 177.2134,255.8159 "/>
<path d="M198.5547,250.8862c0,3.6367-2.1929,5.0039-4.3672,5.0039c-2.2866,0-4.3486-1.5176-4.3486-4.873v-7.1582h-0.9932v7.1973
	c0,3.8418,2.4556,5.7539,5.3418,5.7539c2.606,0,5.3604-1.5938,5.3604-5.9805v-6.9707h-0.9932V250.8862z"/>
<path d="M211.0273,250.2671c1.6309-0.5996,2.437-1.6299,2.437-3.1113c0-1.7051-1.1055-3.2969-4.2363-3.2969h-3.2798v12.7812h0.9927
	v-6.1279h1.7251c1.5366,0,2.0239,0.2051,3.5605,2.624l2.231,3.5039h1.1626l-2.8862-4.4229
	C212.1338,251.3169,211.627,250.5864,211.0273,250.2671z M209.0591,249.686h-2.1182v-5.0029h2.082
	c2.3413,0,3.3726,1.0488,3.3726,2.4922C212.3955,248.7124,211.3081,249.686,209.0591,249.686z"/>
<path d="M233.8608,243.8589h-4.4795v12.7812h4.6475c5.0615,0,6.8047-3.4297,6.8047-6.3906
	C240.8335,247.437,239.2964,243.8589,233.8608,243.8589z M233.9731,255.8159h-3.5986v-11.1328h3.543
	c3.4668,0,5.8477,2.2871,5.8477,5.5664C239.7651,253.8491,237.0483,255.8159,233.9731,255.8159z"/>
<polygon points="248.0034,250.6245 253.8325,250.6245 253.8325,249.8003 248.0034,249.8003 248.0034,244.6831 253.9819,244.6831 
	253.9819,243.8589 247.0093,243.8589 247.0093,256.6401 254.1323,256.6401 254.1323,255.8159 248.0034,255.8159 "/>
<polygon points="264.8413,244.6831 269.6401,244.6831 269.6401,256.6401 270.6343,256.6401 270.6343,244.6831 275.4321,244.6831 
	275.4321,243.8589 264.8413,243.8589 "/>
<polygon points="281.7417,250.6245 287.5698,250.6245 287.5698,249.8003 281.7417,249.8003 281.7417,244.6831 287.7192,244.6831 
	287.7192,243.8589 280.7476,243.8589 280.7476,256.6401 287.8696,256.6401 287.8696,255.8159 281.7417,255.8159 "/>
<polygon points="304.1685,255.0288 294.478,243.8589 293.6343,243.8589 293.6343,256.6401 294.6284,256.6401 294.6284,245.4702 
	304.3374,256.6401 305.1616,256.6401 305.1616,243.8589 304.1685,243.8589 "/>
<path d="M316.3218,243.8589h-4.4785v12.7812h4.6475c5.0605,0,6.8037-3.4297,6.8037-6.3906
	C323.2944,247.437,321.7573,243.8589,316.3218,243.8589z M316.4351,255.8159h-3.5996v-11.1328h3.543
	c3.4678,0,5.8486,2.2871,5.8486,5.5664C322.2271,253.8491,319.5093,255.8159,316.4351,255.8159z"/>
<path d="M333.2026,243.7642l-5.9062,12.876h1.0312l2.0244-4.4229h6.2422l2.0244,4.4229h1.0312l-5.9043-12.876H333.2026z
	 M330.7271,251.3931l2.7363-6.0176l2.7559,6.0176H330.7271z"/>
<polygon points="355.4595,255.0288 345.769,243.8589 344.9253,243.8589 344.9253,256.6401 345.9194,256.6401 345.9194,245.4702 
	355.6284,256.6401 356.4526,256.6401 356.4526,243.8589 355.4595,243.8589 "/>
<path d="M363.6392,250.2671c0-3.2412,2.3994-5.6602,5.5869-5.6602c1.5176,0,2.9609,0.3945,4.5527,1.2383v-1.0879
	c-1.5547-0.7119-3.0723-1.0684-4.4971-1.0684c-3.5049,0-6.71,2.6611-6.71,6.5781c0,3.75,2.9043,6.543,6.8037,6.543
	c1.4814,0,3.0557-0.4121,4.5361-1.2012v-1.0293c-1.7441,0.918-3.1113,1.3105-4.5557,1.3105
	C366.02,255.8901,363.6392,253.5679,363.6392,250.2671z"/>
<polygon points="380.5737,250.6245 386.4038,250.6245 386.4038,249.8003 380.5737,249.8003 380.5737,244.6831 386.5522,244.6831 
	386.5522,243.8589 379.5796,243.8589 379.5796,256.6401 386.7026,256.6401 386.7026,255.8159 380.5737,255.8159 "/>
<rect x="38.2671" width="381.5195" height="1.3379"/>
<rect x="38.2671" y="223.2593" width="381.5195" height="1.3379"/>
<circle cx="7.1357" cy="112.3" r="7.136"/>
<path d="M100.541,71.5479h-1.2754c-3.3398,15.3247-12.9678,20.8237-21.5112,20.8237H61.5449v-67.186h9.0371v-1.3774H38.2671v1.3774
	h9.0356v67.186h-9.0356v1.3745h62.2739V71.5479z"/>
<path d="M154.793,92.8521h-5.4922L129.188,46.4956h-1.7236l-19.0308,46.3564h-5.4268v0.894h12.1328v-0.894h-5.6816l7.0864-17.1123
	h15.3262l7.4062,17.1123h-5.939v0.894h21.4551V92.8521z M116.8643,74.8457l7.1504-17.4316l7.5347,17.4316H116.8643z"/>
<polygon points="268.0571,92.3716 259.02,92.3716 259.02,25.1855 268.0571,25.1855 268.0571,23.8081 243.4995,23.8081 
	226.2139,72.7261 226.0137,72.7261 209.0215,23.8081 183.7759,23.8081 183.7759,25.1855 192.8145,25.1855 192.8145,92.3716 
	183.7759,92.3716 183.7759,93.7461 203.4233,93.7461 203.4233,92.3716 194.3862,92.3716 194.3862,25.1855 194.5811,25.1855 
	218.8452,93.7461 220.416,93.7461 244.5796,25.1855 244.7788,25.1855 244.7788,92.3716 235.8374,92.3716 235.8374,93.7461 
	268.0571,93.7461 "/>
<path d="M298.0249,47.2612c-10.9824,0-23.9424,9.4526-23.9424,23.8813c0,13.1533,11.3662,23.5625,23.9424,23.5625
	c12.707,0,23.8818-10.9814,23.8818-23.7534C321.9067,56.3926,309.8394,47.2612,298.0249,47.2612z M298.0249,93.8115
	c-9.5762,0-13.5352-4.9185-13.5352-22.6689c0-13.4097,1.5947-22.9878,13.5352-22.9878c12.835,0,13.4727,10.4746,13.4727,22.4126
	C311.4976,83.8491,310.604,93.8115,298.0249,93.8115z"/>
<path d="M327.9663,92.8521v0.894h5.875c2.4277,0,4.8535,0.0654,7.2793,0.0654c2.3633,0.0625,4.792,0.1279,7.2168,0.1279
	c9.834,0,26.5625-4.2783,26.5625-22.9248c0-18.7725-16.5391-22.9224-28.0312-22.9224c-2.1729,0-4.3418,0.0625-6.5156,0.0625
	c-2.1699,0.0654-4.3398,0.1284-6.5117,0.1284h-5.875v0.8936h5.875v43.6753H327.9663z M343.0991,49.1768
	c0.832-0.1279,2.3008-0.1909,3.959-0.1909c14.8145,0,17.4336,8.9404,17.4336,22.6689c0,8.4282-1.4707,21.3882-18.0068,21.3882
	c-1.1494,0-2.1689-0.0625-3.3857-0.1909V49.1768z"/>
<path d="M405.9282,92.8521h-10.4707V69.8018h4.2764c5.877,0,7.79,4.4717,8.9395,9.4502h0.832V59.3926h-0.832
	c-1.2109,5.7471-3.3838,9.5156-9.6406,9.5156h-3.5752V49.1768h10.1533c8.4277,0,11.1719,7.2158,12.0674,10.0249h0.8291V48.2832
	h-38.1836v0.8936h5.873v43.6753h-5.873v0.894h40.8018V79.7642h-0.8301C418.5718,87.1709,413.7827,92.8521,405.9282,92.8521z"/>
<path d="M80.4844,201.6147c9.5962,0,17.8364-4.0635,21.3345-4.0635c2.1455,0,2.9351,0.5645,3.7266,2.3701h1.8062v-23.9316h-1.8062
	c-2.71,12.0801-11.5117,24.0439-24.9502,24.0439c-16.9312,0-23.9312-8.6924-23.9312-39.8486
	c0-23.707,2.0361-40.8643,23.9312-40.8643c16.2593,0,21.3374,13.2061,24.6133,23.2549h1.4648v-23.0293h-1.8018
	c-0.4536,2.0332-1.4727,2.3691-3.5034,2.3691c-4.0654,0-11.5137-4.1758-20.8838-4.1758c-19.3042,0-42.2173,16.707-42.2173,42.2197
	C38.2671,183.2163,58.3589,201.6147,80.4844,201.6147z"/>
<path d="M122.3682,151.605l0.7905,1.4688c6.4355-4.0664,16.0293-10.1582,16.0293-21.9004c0-8.5781-4.6309-13.4336-10.3843-13.4336
	c-3.9526,0-8.5811,2.3711-8.5811,8.0156c0,5.7578,4.6284,8.0156,7.7881,8.0156c1.5835,0,3.3867-0.2275,4.7417-1.1289
	c0.791,0.6758,1.6924,2.2578,1.6924,4.6279C134.4448,142.687,129.7065,146.5269,122.3682,151.605z"/>
<polygon points="196.1934,127.561 246.9917,199.9214 250.0376,199.9214 250.0376,121.1265 260.4263,121.1265 260.4263,119.5464 
	237.8491,119.5464 237.8491,121.1265 248.2358,121.1265 248.2358,173.2808 248.0073,173.2808 210.4155,119.5464 183.7759,119.5464 
	183.7759,121.1265 194.1616,121.1265 194.1616,198.3403 183.7759,198.3403 183.7759,199.9214 206.3506,199.9214 206.3506,198.3403 
	195.9648,198.3403 195.9648,127.561 "/>
<path d="M291.0327,201.022c14.6045,0,27.4473-12.6201,27.4473-27.2979c0-16.7305-13.8701-27.2236-27.4473-27.2236
	c-12.6191,0-27.5176,10.8584-27.5176,27.4443C263.5151,189.062,276.5776,201.022,291.0327,201.022z M291.0327,147.5278
	c14.75,0,15.4844,12.0342,15.4844,25.7549c0,15.2656-1.0273,26.7148-15.4844,26.7148c-11.0078,0-15.5566-5.6562-15.5566-26.0527
	C275.4761,158.5347,277.3101,147.5278,291.0327,147.5278z"/>
<path d="M352.5972,201.022c17.6123,0,17.6123-13.1357,17.6123-17.9053v-34.416h6.8232v-1.0273H362.356v1.0273h6.6787v34.4922
	c0,4.252,0,16.8047-15.7773,16.8047c-10.9336,0-11.8896-9.249-11.8896-18.3496v-32.9473h6.7529v-1.0273h-24.2148v1.0273h6.8223
	v34.2695C330.728,191.7026,333.4448,201.022,352.5972,201.022z"/>
<path d="M389.8726,156.7007c0-4.3301,4.3301-9.1729,12.1084-9.1729c9.54,0,11.96,7.335,14.2363,14.0889h0.9521v-13.9434h-1.1729
	c-0.4404,1.1738-0.7344,1.543-2.0557,1.543c-2.3477,0-5.4297-2.7158-11.8887-2.7158c-10.3477,0-17.6836,7.3389-17.6836,15.1162
	c0,21.0586,30.2324,12.4033,30.2324,27.0039c0,3.8164-2.6396,11.377-12.916,11.377c-2.9336,0-6.8965,0-11.3721-4.4062
	c-4.0361-3.9629-5.5029-9.6123-5.9443-11.9619H383.27v16.292h1.1719c0.5146-1.3223,0.9561-1.6855,2.2754-1.6855
	c1.9814,0,8.3652,2.7861,14.3828,2.7861c11.9639,0,20.2549-8.2197,20.2549-17.8291
	C421.355,163.7437,389.8726,170.2749,389.8726,156.7007z"/>
<circle cx="452.6235" cy="112.3" r="7.136"/>
</svg>
